<svg xmlns="http://www.w3.org/2000/svg" viewBox="0 0 32 32">
  <rect width="32" height="32" rx="8" fill="#042396"/>
  <path d="M5 9V6.5A1.5 1.5 0 0 1 6.5 5H9M23 5h2.5A1.5 1.5 0 0 1 27 6.5V9M27 23v2.5a1.5 1.5 0 0 1-1.5 1.5H23M9 27H6.5A1.5 1.5 0 0 1 5 25.5V23" stroke="#16C0E6" stroke-width="1.8" stroke-linecap="round" fill="none"/>
  <path d="M9.5 19.5c2.2 0 2.4-7 3.6-7 1 0 1 5 2.1 5 1.3 0 1.8-9 3.2-9 1.1 0 1.1 8 2.2 8 .9 0 1.3-2.4 1.9-2.4" stroke="#fff" stroke-width="1.9" stroke-linecap="round" stroke-linejoin="round" fill="none"/>
</svg>
